<svg width="109" height="26" viewBox="0 0 109 26" fill="none" xmlns="http://www.w3.org/2000/svg">
<g clip-path="url(#clip0)" filter="url(#filter0_dd)">
<path d="M5.26449 16.5385C4.36955 15.2762 3.9253 13.7627 4.00001 12.2308V5.84615C3.89163 4.29774 4.30807 2.75746 5.18546 1.46154C6.05478 0.461538 7.39829 0 9.37403 0C11.3498 0 12.6143 0.461538 13.4045 1.30769C14.2626 2.37941 14.6846 3.72136 14.59 5.07692V6.61539H10.7175V4.84615C10.7488 4.32289 10.6681 3.799 10.4804 3.30769C10.3802 3.10938 10.2212 2.9448 10.024 2.83513C9.82686 2.72547 9.60049 2.67572 9.37403 2.69231C8.82082 2.69231 8.42568 2.84615 8.26762 3.23077C8.08883 3.77733 8.00862 4.34988 8.03053 4.92308V13.1538C7.98879 13.71 8.0978 14.267 8.34665 14.7692C8.5047 15.1538 8.89985 15.3077 9.45306 15.3077C10.0063 15.3077 10.3224 15.1538 10.4804 14.7692C10.6601 14.2494 10.7405 13.7019 10.7175 13.1538V11.3077H14.59V12.8462C14.6704 14.2238 14.2508 15.5852 13.4045 16.6923C12.6143 17.6154 11.2707 18.0769 9.37403 18.0769C7.47732 18 6.05478 17.5385 5.26449 16.5385Z" fill="#111111"/>
<path d="M19.2527 0.23077H23.7574L27.0767 17.7692H23.4413L22.8091 14.0769H20.2011L19.5689 17.7692H15.8545L19.2527 0.23077ZM22.493 11.7692L21.5446 4.92308L20.5962 11.7692H22.493Z" fill="#111111"/>
<path d="M29.8427 3.15385H27.1557V0.23077H36.5602V3.07692H33.8732V17.7692H29.8427V3.15385Z" fill="#111111"/>
<path d="M43.752 0.23077H50.7066V2.07692H46.2019V7.84615H49.8372V9.61539H46.2019V16.0769H50.7066V17.8462H43.6729V0.23077H43.752Z" fill="#111111"/>
<path d="M52.7613 0.23077H54.5L59.6369 11.8462V0.23077H61.6917V17.7692H60.1111L54.8951 5.76923V17.7692H52.7613V0.23077Z" fill="#111111"/>
<path d="M64.0626 0.23077H71.0172V2.07692H66.5125V7.84615H70.1479V9.61539H66.5125V16.0769H71.0172V17.8462H64.0626V0.23077Z" fill="#111111"/>
<path d="M73.072 0.23077H76.7074C78.1375 0.134618 79.5587 0.514353 80.7379 1.30769C81.6072 2 82.0024 3.23077 82.0024 4.84616C82.0024 7.07692 81.2911 8.46154 79.7895 8.92308L82.3185 17.6923H79.8686L77.4977 9.46154H75.5219V17.6923H72.993V0.23077H73.072ZM76.5493 7.76923C77.364 7.83458 78.1761 7.61652 78.8412 7.15385C79.3154 6.76923 79.5524 6 79.5524 4.84616C79.5743 4.27296 79.4941 3.7004 79.3154 3.15385C79.1375 2.76166 78.832 2.4373 78.446 2.23077C77.9017 1.98934 77.3042 1.8836 76.7074 1.92308H75.601V7.69231H76.5493V7.76923Z" fill="#111111"/>
<path d="M85.1635 16.4615C84.342 15.1166 83.9564 13.5617 84.0571 12V6.15384C84.0376 5.03911 84.1705 3.9268 84.4522 2.84615C84.7167 2.03863 85.2437 1.33668 85.9538 0.846152C86.8362 0.337748 87.8542 0.0967294 88.8779 0.153844C90.5375 0.153844 91.723 0.53846 92.4343 1.38461C93.2524 2.50191 93.6438 3.86237 93.5407 5.23077V5.84615H91.1698V5.30769C91.1734 4.66346 91.1205 4.0201 91.0117 3.38461C90.9451 2.98303 90.7178 2.62348 90.3795 2.38461C89.9353 2.10082 89.4081 1.96579 88.8779 2C88.3113 1.96466 87.7504 2.12843 87.2973 2.46154C87.1114 2.61401 86.9595 2.80181 86.8508 3.01344C86.742 3.22507 86.6789 3.45608 86.6651 3.69231C86.5609 4.37999 86.5081 5.07411 86.507 5.76923V12.3077C86.4488 13.3038 86.6105 14.3006 86.9812 15.2308C87.2973 15.8462 87.9296 16.0769 88.8779 16.0769C89.2524 16.1223 89.6322 16.0589 89.9697 15.8947C90.3072 15.7304 90.5873 15.4727 90.7746 15.1538C91.1922 14.1811 91.3812 13.1299 91.3278 12.0769V10.8462H89.036V9.07692H93.6197V17.7692H92.0391L91.802 15.7692C91.5948 16.4395 91.1634 17.0231 90.5763 17.4273C89.9892 17.8315 89.2801 18.0331 88.5618 18C87.9088 18.0374 87.2565 17.9164 86.6633 17.6479C86.0702 17.3794 85.5549 16.9717 85.1635 16.4615Z" fill="#111111"/>
<path d="M98.6776 11.6154L94.8052 0.30769H97.1761L99.9421 8.76923L102.629 0.30769H105L101.128 11.6154V17.7692H98.7566V11.6154H98.6776Z" fill="#111111"/>
</g>
<defs>
<filter id="filter0_dd" x="0" y="0" width="109" height="26" filterUnits="userSpaceOnUse" color-interpolation-filters="sRGB">
<feFlood flood-opacity="0" result="BackgroundImageFix"/>
<feColorMatrix in="SourceAlpha" type="matrix" values="0 0 0 0 0 0 0 0 0 0 0 0 0 0 0 0 0 0 127 0"/>
<feOffset dy="4"/>
<feGaussianBlur stdDeviation="2"/>
<feColorMatrix type="matrix" values="0 0 0 0 0 0 0 0 0 0 0 0 0 0 0 0 0 0 0.25 0"/>
<feBlend mode="normal" in2="BackgroundImageFix" result="effect1_dropShadow"/>
<feColorMatrix in="SourceAlpha" type="matrix" values="0 0 0 0 0 0 0 0 0 0 0 0 0 0 0 0 0 0 127 0"/>
<feOffset dy="4"/>
<feGaussianBlur stdDeviation="2"/>
<feColorMatrix type="matrix" values="0 0 0 0 0 0 0 0 0 0 0 0 0 0 0 0 0 0 0.25 0"/>
<feBlend mode="normal" in2="effect1_dropShadow" result="effect2_dropShadow"/>
<feBlend mode="normal" in="SourceGraphic" in2="effect2_dropShadow" result="shape"/>
</filter>
<clipPath id="clip0">
<rect width="101" height="18" fill="white" transform="translate(4)"/>
</clipPath>
</defs>
</svg>
